<?xml version="1.0" standalone="no"?><!DOCTYPE svg PUBLIC "-//W3C//DTD SVG 1.1//EN" "http://www.w3.org/Graphics/SVG/1.1/DTD/svg11.dtd"><svg t="1558083075288" class="icon" style="" viewBox="0 0 1024 1024" version="1.1" xmlns="http://www.w3.org/2000/svg" p-id="5682" xmlns:xlink="http://www.w3.org/1999/xlink" width="48" height="48"><defs><style type="text/css"></style></defs><path d="M692.33037594 875.34309312c-44.092665-0.13143094-88.20163969-0.01918688-132.29238563-0.07482937-6.25304062-0.01918688-12.50320313-0.55450406-19.68009656-0.88835812 0-27.96312094 0.81544688-53.89242094-0.331935-79.74785063-0.61110562-13.650585 5.51050406-16.77518625 17.34695906-18.25546312 136.62097125-17.08889344 249.08839781-145.57170281 247.16394282-281.91446157-0.25902469-19.01238938-11.57743031-32.01445406-28.03890938-32.21783625-15.66426-0.20338219-27.68586937 11.92855219-29.38775531 29.72064938-1.07159344 11.11502438-1.4054475 22.34229188-3.19847156 33.34603125C726.65494437 631.71147594 647.42418219 708.68680625 537.1210475 721.78192813 437.04649812 733.65387875 341.61424156 679.1129375 298.55863344 588.02749344c-14.96297531-31.62687656-19.36447125-65.11968844-22.84115344-99.20633813-1.77575625-17.47743-14.62912125-27.55731656-29.72064938-26.42912062-15.57216188 1.16560969-26.63250281 12.7986825-26.55863343 30.03531562 0.0556425 14.11107281 1.14642281 28.33438969 3.27330093 42.278535C242.75998437 665.77989687 350.99092438 762.19260969 469.96753812 777.37527594c4.66052063 0.61110562 11.836455 8.08347937 12.02160938 12.57611343 1.10900812 27.59473031 0.55450406 55.28059969 0.55450406 85.35429-52.43229094 0-102.38754094-0.14773969-152.35910062 0.0546825-21.00975562 0.09401625-33.95713687 11.26468219-33.90053532 28.40921813 0.03645562 17.12630813 12.96465 28.31424281 33.9935925 28.33247062 120.97398 0.12951187 241.96522781 0.110325 362.93920688 0.01918688 20.9186175-0.01918688 33.9935925-11.00469844 34.30825875-27.94489313C727.83878094 886.6797275 714.31962688 875.39777656 692.33037594 875.34309312zM637.54767875 131.89227313c-51.02684344-51.89601469-178.21453031-49.3806-226.33742344-15.40619438-43.37027531 30.6090075-67.65429 70.65033938-68.96764031 125.22773531L686.61553062 241.71381406C684.69107562 197.32662875 667.58395438 162.42741031 637.54767875 131.89227313zM421.01193031 662.80111719c34.25261719 19.38365813 71.77757438 18.55190156 109.34186625 18.12691031 87.34973719-0.99868312 150.10271062-60.62609531 155.00210813-148.71741l-344.16665532 0C343.88885938 591.33820906 370.44749281 634.17220719 421.01193031 662.80111719zM684.35722156 274.15326031L342.72420875 274.15326031l0 54.72609563 341.63301281 0L684.35722156 274.15326031zM685.44992094 358.61919219L344.18529875 358.61919219l0 54.89206312 341.26462219 0L685.44992094 358.61919219zM681.86099469 499.84504063l0-56.00203032L387.81363875 443.84301031c-53.26404656 0-53.26404656 0-46.69921781 56.00203031L681.86099469 499.84504063z" fill="#1296db" p-id="5683"></path></svg>