<?xml version="1.0" standalone="no"?><!DOCTYPE svg PUBLIC "-//W3C//DTD SVG 1.1//EN" "http://www.w3.org/Graphics/SVG/1.1/DTD/svg11.dtd"><svg t="1558082675167" class="icon" style="" viewBox="0 0 1024 1024" version="1.1" xmlns="http://www.w3.org/2000/svg" p-id="4544" xmlns:xlink="http://www.w3.org/1999/xlink" width="48" height="48"><defs><style type="text/css"></style></defs><path d="M81.955058 510.596024c0-58.108442 10.604522-113.109104 31.843243-165.058267 21.239743-51.951209 52.211129-98.060363 92.88755-138.386813 41.025369-41.025369 87.338161-72.170716 138.9087-93.41046C397.167137 92.499717 452.370413 81.867566 511.236102 81.867566c58.806337 0 114.095571 10.634198 165.870772 31.871895 51.748594 21.23872 97.972359 52.385091 138.64878 93.410459 40.678468 40.327474 71.707159 86.436628 93.149516 138.386814 21.412682 51.948139 32.132838 106.948801 32.132838 165.058267 0 58.108442-10.721179 113.225761-32.132838 165.348885-21.442358 52.122101-52.472072 98.494245-93.149516 139.17169-40.675398 40.674375-86.900186 71.617108-138.64878 92.886527-51.7752 21.236674-107.064434 31.871895-165.870772 31.871894-58.865689 0-114.067942-10.635221-165.640528-31.871894-51.570539-21.269419-97.883331-52.210106-138.9087-92.886527-40.328497-40.679491-71.184249-87.049588-92.596931-139.17169-21.442358-52.122101-32.134885-107.240443-32.134885-165.347862z m20.687159 0c0 55.204299 10.169617 107.792005 30.506804 157.707858 20.339234 49.944506 49.741891 93.991698 88.268346 132.1119 38.119179 38.497802 81.962733 67.810409 131.529639 87.975681 49.566906 20.165272 102.329597 30.247908 158.289096 30.247908 55.900148 0 108.663862-10.082636 158.230767-30.247908 49.565882-20.165272 93.613074-49.477878 132.110877-87.975681 38.119179-38.84675 67.37755-83.068927 87.715761-132.633786 20.337187-49.564859 30.505781-101.980649 30.505781-157.184949s-10.081613-107.385752-30.246885-156.604734c-20.163225-49.218982-49.479925-93.438089-87.976703-132.662439-38.498826-38.496779-82.544994-67.813478-132.1119-87.976703-49.567929-20.164249-102.33062-30.244838-158.231791-30.244838-55.959499 0-108.721167 10.080589-158.289096 30.244838-49.565882 20.163225-93.409436 49.479925-131.529639 87.976703-38.525432 38.496779-67.928089 82.426291-88.267323 131.820258-20.335141 49.39192-30.503734 101.893668-30.503734 157.445892z" p-id="4545" fill="#1296db"></path><path d="M524.131807 686.72851v98.072643h84.906785v24.36185H414.959362v-24.36185h84.906785v-98.072643c-88.088244-6.268774-157.673066-79.850629-157.673066-169.927157V407.16228h24.25031v109.639073c0 80.734766 65.167209 146.180314 145.564284 146.180313 80.381725 0 145.547911-65.445548 145.54791-146.180313V407.16228h24.251334v109.639073c-0.001023 90.073458-69.570495 163.65736-157.675112 169.927157z m-12.125156-72.473615c-53.598732 0-97.048313-43.633776-97.048313-97.453542V309.707714c0-53.823859 43.449581-97.453542 97.048313-97.453542 53.582359 0 97.03194 43.630706 97.031941 97.453542v207.092615c0 53.82079-43.449581 97.454566-97.031941 97.454566z" p-id="4546" fill="#1296db"></path></svg>